<svg width="20" height="21" viewBox="0 0 20 21" fill="none" xmlns="http://www.w3.org/2000/svg">
<path fill-rule="evenodd" clip-rule="evenodd" d="M10.0114 3.38071L8.97522 2.19131C8.48955 1.62632 7.91132 1.17719 7.27381 0.869772C6.6363 0.562352 5.95211 0.402717 5.26062 0.400058C4.56914 0.397399 3.88404 0.551769 3.24474 0.854278C2.60545 1.15679 2.02461 1.60146 1.53566 2.1627C1.0467 2.72393 0.659299 3.39064 0.39575 4.12444C0.132201 4.85824 -0.00228713 5.64463 2.94248e-05 6.43833C0.00234598 7.23203 0.141421 8.01737 0.409248 8.74913C0.677075 9.48088 1.06836 10.1446 1.56058 10.7021L9.98665 20.3738L9.98856 20.3716L10.0133 20.4L18.4394 10.7283C18.9316 10.1709 19.3229 9.50714 19.5908 8.77539C19.8586 8.04363 19.9977 7.2583 20 6.46459C20.0023 5.67089 19.8678 4.8845 19.6043 4.1507C19.3407 3.41691 18.9533 2.75019 18.4643 2.18896C17.9754 1.62772 17.3945 1.18305 16.7553 0.880539C16.116 0.57803 15.4309 0.42366 14.7394 0.426319C14.0479 0.428978 13.3637 0.588613 12.7262 0.896033C12.0887 1.20345 11.5104 1.65258 11.0248 2.21757L10.0114 3.38071ZM9.98856 17.2772L14.694 11.875L16.0762 10.3432H16.0781L17.0915 9.18111C17.7172 8.46286 18.0688 7.4887 18.0688 6.47294C18.0688 5.45718 17.7172 4.48303 17.0915 3.76478C16.4657 3.04653 15.617 2.64302 14.7321 2.64302C13.8472 2.64302 12.9985 3.04653 12.3727 3.76478L10.0124 6.47513L10.0057 6.46747L7.62728 3.73961C7.00153 3.02136 6.15284 2.61785 5.2679 2.61785C4.38296 2.61785 3.53427 3.02136 2.90852 3.73961C2.28278 4.45786 1.93124 5.43202 1.93124 6.44778C1.93124 7.46354 2.28278 8.43769 2.90852 9.15594L5.32986 11.9352L5.33082 11.9319L9.98856 17.2783V17.2772Z" fill="#BF0000"/>
<path fill-rule="evenodd" clip-rule="evenodd" d="M10.0114 3.38071L8.97522 2.19131C8.48955 1.62632 7.91132 1.17719 7.27381 0.869772C6.6363 0.562352 5.95211 0.402717 5.26062 0.400058C4.56914 0.397399 3.88404 0.551769 3.24474 0.854278C2.60545 1.15679 2.02461 1.60146 1.53566 2.1627C1.0467 2.72393 0.659299 3.39064 0.39575 4.12444C0.132201 4.85824 -0.00228713 5.64463 2.94248e-05 6.43833C0.00234598 7.23203 0.141421 8.01737 0.409248 8.74913C0.677075 9.48088 1.06836 10.1446 1.56058 10.7021L9.98665 20.3738L9.98856 20.3716L10.0133 20.4L18.4394 10.7283C18.9316 10.1709 19.3229 9.50714 19.5908 8.77539C19.8586 8.04363 19.9977 7.2583 20 6.46459C20.0023 5.67089 19.8678 4.8845 19.6043 4.1507C19.3407 3.41691 18.9533 2.75019 18.4643 2.18896C17.9754 1.62772 17.3945 1.18305 16.7553 0.880539C16.116 0.57803 15.4309 0.42366 14.7394 0.426319C14.0479 0.428978 13.3637 0.588613 12.7262 0.896033C12.0887 1.20345 11.5104 1.65258 11.0248 2.21757L10.0114 3.38071ZM9.98856 17.2772L14.694 11.875L16.0762 10.3432H16.0781L17.0915 9.18111C17.7172 8.46286 18.0688 7.4887 18.0688 6.47294C18.0688 5.45718 17.7172 4.48303 17.0915 3.76478C16.4657 3.04653 15.617 2.64302 14.7321 2.64302C13.8472 2.64302 12.9985 3.04653 12.3727 3.76478L10.0124 6.47513L10.0057 6.46747L7.62728 3.73961C7.00153 3.02136 6.15284 2.61785 5.2679 2.61785C4.38296 2.61785 3.53427 3.02136 2.90852 3.73961C2.28278 4.45786 1.93124 5.43202 1.93124 6.44778C1.93124 7.46354 2.28278 8.43769 2.90852 9.15594L5.32986 11.9352L5.33082 11.9319L9.98856 17.2783V17.2772Z" fill="black" fill-opacity="0.2"/>
<path fill-rule="evenodd" clip-rule="evenodd" d="M10.0114 3.38071L8.97522 2.19131C8.48955 1.62632 7.91132 1.17719 7.27381 0.869772C6.6363 0.562352 5.95211 0.402717 5.26062 0.400058C4.56914 0.397399 3.88404 0.551769 3.24474 0.854278C2.60545 1.15679 2.02461 1.60146 1.53566 2.1627C1.0467 2.72393 0.659299 3.39064 0.39575 4.12444C0.132201 4.85824 -0.00228713 5.64463 2.94248e-05 6.43833C0.00234598 7.23203 0.141421 8.01737 0.409248 8.74913C0.677075 9.48088 1.06836 10.1446 1.56058 10.7021L9.98665 20.3738L9.98856 20.3716L10.0133 20.4L18.4394 10.7283C18.9316 10.1709 19.3229 9.50714 19.5908 8.77539C19.8586 8.04363 19.9977 7.2583 20 6.46459C20.0023 5.67089 19.8678 4.8845 19.6043 4.1507C19.3407 3.41691 18.9533 2.75019 18.4643 2.18896C17.9754 1.62772 17.3945 1.18305 16.7553 0.880539C16.116 0.57803 15.4309 0.42366 14.7394 0.426319C14.0479 0.428978 13.3637 0.588613 12.7262 0.896033C12.0887 1.20345 11.5104 1.65258 11.0248 2.21757L10.0114 3.38071ZM9.98856 17.2772L14.694 11.875L16.0762 10.3432H16.0781L17.0915 9.18111C17.7172 8.46286 18.0688 7.4887 18.0688 6.47294C18.0688 5.45718 17.7172 4.48303 17.0915 3.76478C16.4657 3.04653 15.617 2.64302 14.7321 2.64302C13.8472 2.64302 12.9985 3.04653 12.3727 3.76478L10.0124 6.47513L10.0057 6.46747L7.62728 3.73961C7.00153 3.02136 6.15284 2.61785 5.2679 2.61785C4.38296 2.61785 3.53427 3.02136 2.90852 3.73961C2.28278 4.45786 1.93124 5.43202 1.93124 6.44778C1.93124 7.46354 2.28278 8.43769 2.90852 9.15594L5.32986 11.9352L5.33082 11.9319L9.98856 17.2783V17.2772Z" fill="black" fill-opacity="0.2"/>
</svg>
